`<?xml version="1.0" encoding="iso-8859-1"?>
<!-- Generator: Adobe Illustrator 19.0.0, SVG Export Plug-In . SVG Version: 6.00 Build 0)  -->
<svg xmlns="http://www.w3.org/2000/svg" xmlns:xlink="http://www.w3.org/1999/xlink" version="1.1" id="Capa_1" x="0px" y="0px" viewBox="0 0 465 465" style="enable-background:new 0 0 465 465;" xml:space="preserve" width="512" height="512">
<g>
	<path style="fill:#8AA92C;" d="M354.58,134.27c7.31,0,13.24,5.93,13.24,13.24s-5.93,13.23-13.24,13.23   c-7.31,0-13.23-5.92-13.23-13.23S347.27,134.27,354.58,134.27z"/>
	<path style="fill:#FFD608;" d="M458.5,147.51l-30.92,30.91c-1.54-10.69-4.15-21.03-7.73-30.91H458.5z"/>
	<path style="fill:#C2DC71;" d="M148.29,300.09L46.31,402.06H8.5l124.59-124.58C137.51,285.47,142.59,293.03,148.29,300.09z"/>
	<path style="fill:#C2DC71;" d="M369.08,208.42c-3.72,50.73-46.06,90.73-97.74,90.73c-43.26,0-79.98-28.04-92.97-66.93   c-0.01-0.01,169.25-169.28,169.25-169.28c33.24,18.38,59.16,48.4,72.23,84.57c3.58,9.88,6.19,20.22,7.73,30.91   c1.08,7.44,1.64,15.04,1.64,22.77c0,2.42-0.05,4.84-0.17,7.23H369.08z M367.82,147.51c0-7.31-5.93-13.24-13.24-13.24   c-7.31,0-13.23,5.93-13.23,13.24s5.92,13.23,13.23,13.23C361.89,160.74,367.82,154.82,367.82,147.51z"/>
	<path style="fill:#8AA92C;" d="M369.08,208.42h59.97c-3.77,83.84-72.94,150.65-157.71,150.65c-49.75,0-94.12-23.02-123.05-58.98   c-5.7-7.06-10.78-14.62-15.2-22.61l45.27-45.27c13,38.9,49.72,66.94,92.98,66.94C323.02,299.15,365.36,259.15,369.08,208.42z"/>
	<path style="fill:#591200;" d="M353.581,126.772c-11.434,0-20.735,9.302-20.735,20.735s9.302,20.735,20.735,20.735   s20.735-9.302,20.735-20.735S365.015,126.772,353.581,126.772z M353.581,153.241c-3.162,0-5.735-2.573-5.735-5.735   s2.573-5.735,5.735-5.735s5.735,2.573,5.735,5.735S356.743,153.241,353.581,153.241z"/>
	<path style="fill:#591200;" d="M464.429,144.636c-1.16-2.803-3.896-4.63-6.929-4.63h-33.548   c-13.944-34.977-39.647-64.806-73.701-83.635c-0.016-0.009-0.033-0.015-0.049-0.024c-0.153-0.083-0.31-0.157-0.468-0.229   c-0.073-0.033-0.144-0.07-0.218-0.101c-0.138-0.058-0.279-0.106-0.42-0.155c-0.098-0.034-0.195-0.073-0.294-0.103   c-0.106-0.032-0.215-0.056-0.322-0.083c-0.134-0.034-0.267-0.071-0.401-0.098c-0.072-0.014-0.145-0.022-0.217-0.034   c-0.169-0.028-0.338-0.057-0.508-0.073c-0.05-0.005-0.1-0.005-0.15-0.008c-0.19-0.015-0.379-0.027-0.569-0.027   c-0.061,0-0.122,0.006-0.184,0.008c-0.176,0.004-0.352,0.009-0.527,0.025c-0.111,0.01-0.22,0.03-0.33,0.046   c-0.124,0.017-0.248,0.03-0.37,0.053c-0.159,0.03-0.316,0.072-0.473,0.112c-0.073,0.019-0.147,0.032-0.219,0.053   c-0.173,0.05-0.342,0.111-0.511,0.174c-0.056,0.021-0.114,0.037-0.169,0.059c-0.155,0.061-0.305,0.134-0.456,0.206   c-0.07,0.033-0.141,0.062-0.21,0.097c-0.122,0.063-0.24,0.135-0.359,0.205c-0.095,0.056-0.192,0.108-0.285,0.169   c-0.089,0.058-0.175,0.124-0.262,0.186c-0.118,0.084-0.237,0.166-0.35,0.257c-0.067,0.054-0.131,0.115-0.198,0.171   c-0.125,0.108-0.25,0.216-0.368,0.333c-0.015,0.015-0.031,0.027-0.046,0.041L2.197,396.761c-2.929,2.929-2.929,7.678,0,10.606   c1.465,1.464,3.385,2.197,5.304,2.197s3.839-0.732,5.304-2.197l117.771-117.773c2.14,3.378,4.385,6.669,6.744,9.859l-97.308,97.308   c-2.929,2.929-2.929,7.678,0,10.606c1.465,1.464,3.385,2.197,5.304,2.197s3.839-0.732,5.304-2.197l96.22-96.22   c31.027,34.812,75.785,55.419,123.505,55.419c91.188,0,165.374-74.187,165.374-165.374c0-15.855-2.294-31.377-6.606-46.186h10.282   l-0.431,0.432c-2.93,2.929-2.93,7.677-0.001,10.606c1.465,1.465,3.384,2.197,5.304,2.197c1.919,0,3.839-0.732,5.303-2.197   l13.235-13.235C464.948,150.665,465.59,147.439,464.429,144.636z M270.343,351.566c-45.964,0-88.917-21.018-117.199-56.154   c-0.031-0.039-0.064-0.078-0.096-0.116c-4.198-5.227-8.071-10.765-11.582-16.593l33.127-33.128   c17.135,36.961,54.259,61.076,95.75,61.076c35.641,0,68.63-17.798,88.244-47.61c2.276-3.46,1.317-8.111-2.144-10.388   c-3.459-2.276-8.11-1.317-10.388,2.143c-16.831,25.582-45.136,40.855-75.713,40.855c-37.474,0-70.793-22.927-84.325-57.502   L347.852,72.313c45.084,27.162,72.865,76.03,72.865,128.879C420.717,284.109,353.259,351.566,270.343,351.566z"/>
</g>
</svg>