<svg width="3528" height="2222" viewBox="0 0 3528 2222" fill="none" xmlns="http://www.w3.org/2000/svg">
<path d="M367.435 2218.67C344.707 2181.39 326.113 2111.75 349.305 2070C372.398 2028.43 394.58 1985.41 420.215 1944.7C458.242 1884.3 506.203 1827.78 536.249 1763.4C561.528 1709.23 574.726 1649.81 599.303 1594.98C612.384 1565.8 625.565 1532.66 648.658 1509.57C656.814 1501.41 660.132 1490.84 668.4 1482.58C679.021 1471.95 690.961 1461.77 700.229 1449.94C732.612 1408.62 768.627 1367.84 805.788 1330.68C849.101 1287.37 892.868 1249.43 943.176 1215.05C1001.47 1175.22 1066.26 1148.56 1128.91 1116.34C1158.18 1101.29 1191.71 1083.83 1217.55 1063.16C1234.14 1049.88 1250.47 1038.72 1269.52 1029.32C1280.48 1023.91 1288.56 1015.37 1298.93 1009.17C1311.03 1001.94 1324.27 998.535 1335.4 989.631C1360.51 969.541 1385.05 954.479 1408.12 931.412C1437 902.531 1457.22 864.191 1477.01 828.673C1503.8 780.612 1518.66 728.024 1553.36 684.638C1594.53 633.181 1637.31 586.139 1685.72 541.609C1709.28 519.93 1739.2 509.203 1766.7 494.47C1797.27 478.091 1822.64 454.997 1854.93 441.086C1937.75 405.409 2026.61 385.668 2108.15 347.614C2142.08 331.781 2176.98 320.096 2211.3 306.115C2236.14 295.995 2256.83 281.568 2280.39 269.452C2301.42 258.637 2324.94 249.376 2346.87 240.846C2362.21 234.879 2363.05 188.484 2378 183.5" stroke="black" stroke-opacity="0.1" stroke-width="5" stroke-linecap="round"/>
<path d="M2272.5 129C2256.08 161.186 2115.75 242.674 2087 263.408C2055.86 285.874 2023 300.07 1989.9 318.605C1971.37 328.985 1945.55 337.483 1925.04 340.765C1900.63 344.669 1877.19 357.527 1854.13 366.55C1810.46 383.638 1779.08 420.372 1733.86 435.445C1712.33 442.622 1707.18 463.648 1683.9 463.648C1653.61 463.648 1624.63 462.119 1595.87 471.706C1578.35 477.548 1568.21 500.263 1557.59 514.413C1543.4 533.335 1535.25 555.753 1523.95 576.46C1512.25 597.918 1505.54 616.428 1487.89 634.074C1473.15 648.821 1458.83 664.203 1443.17 677.99C1407.44 709.455 1377.74 733.186 1362.99 779.52C1355.1 804.319 1353.29 822.503 1333.58 842.775C1317.04 859.787 1295.3 868.22 1275.57 880.849C1217.21 918.197 1163.38 958.489 1102.32 992.25C1081.33 1003.85 1060.22 1015.82 1040.27 1029.11C1020.82 1042.09 998.321 1048.97 978.631 1061.55C957.166 1075.26 936.105 1087.53 912.958 1098.21C892.766 1107.53 876.783 1121.48 857.56 1132.06C792.805 1167.67 728.927 1188.77 687.336 1254.13C674.312 1274.6 652.19 1295.13 634.959 1312.96C613.052 1335.62 590.506 1351.64 562.841 1366.54C537.533 1380.17 509.248 1389.55 482.865 1401.19C447.844 1416.64 419.268 1441.88 385.566 1459.21C357.458 1473.66 341.242 1481.99 347.29 1516.02C352.373 1544.6 352.931 1571.47 352.931 1600.62C352.931 1632.57 327.088 1667.56 305.389 1689.26C277.306 1717.35 251.983 1746.01 219.169 1769.04C204.799 1779.12 187.376 1788.48 175.656 1801.87C162.487 1816.92 157.056 1832.52 138.187 1843.37C105.827 1861.98 62.8626 1856.06 26.5841 1856.06" stroke="black" stroke-opacity="0.1" stroke-width="5" stroke-linecap="round"/>
<path d="M1228.5 911C1208.72 905.606 1185.91 901.636 1176.05 881.453C1171.63 872.4 1166.86 869.648 1158.73 864.128C1141.51 852.444 1127.49 837.455 1111.18 824.644C1089.85 807.882 1083.57 777.603 1072.91 754.339C1061.32 729.043 1046.44 704.145 1036.25 678.393C1020.15 637.724 1027.38 586.666 1027.38 543.825C1027.38 524.889 1027.38 505.952 1027.38 487.016C1027.38 475.628 1031.87 451.379 1025.77 441.086C1015.63 423.967 993.216 376.622 969.364 376.622C956.979 376.622 946.285 369.37 933.103 369.37C916.652 369.37 900.2 369.37 883.748 369.37C865.798 369.37 847.69 370.043 829.76 369.169C809.562 368.183 792.958 358.293 773.556 354.06C745.43 347.923 711.788 325.357 687.739 309.741C669.363 297.809 650.593 291.4 630.93 282.344C615.849 275.399 603.418 261.977 590.641 251.523C574.339 238.185 562.385 220.324 543.502 210.024C525.276 200.083 514.265 189.393 501.6 173.562" stroke="black" stroke-opacity="0.1" stroke-width="5" stroke-linecap="round"/>
<path d="M450.835 209.823C467.695 235.675 485.68 268.999 512.478 286.373C533.741 300.159 557.12 312.168 577.748 326.663C603.486 344.749 632.435 358.385 654.298 380.248C663.207 389.157 676.974 393.215 684.314 403.818C692.753 416.007 683.66 418.908 701.84 425.776C727.343 435.41 760.935 441.892 788.262 441.892C814.371 441.892 840.539 445.518 867.028 445.518C879.909 445.518 902.406 440.299 909.534 452.971C923.518 477.832 925.851 501.236 925.851 528.918C925.851 551.977 906.275 578.527 893.418 597.813C849.114 664.268 969.364 682.146 969.364 746.482C969.364 766.231 965.738 785.283 965.738 804.499C965.738 836.9 979.746 865.367 999.179 891.525C1027.75 929.983 1013.16 961.307 990.315 998.696C979.878 1015.78 960.082 1031.35 945.795 1045.63C933.027 1058.4 934.338 1087.27 920.5 1096.5" stroke="black" stroke-opacity="0.1" stroke-width="5" stroke-linecap="round"/>
<path d="M978.5 861C909.682 822.768 873.03 724.977 783.157 728.884C695.801 732.683 609.82 782.559 522.08 771.592C477.352 766.001 412.77 744.292 381.066 710.15C361.914 689.525 342.112 670.815 319.825 653.543C296.671 635.598 274.718 604.028 244.484 599.151C229.198 596.686 213.929 591.093 198.553 591.093C180.174 591.093 165.438 581.458 147.385 580.014C134.768 579.004 123.051 576.872 110.319 576.589C94.1585 576.23 81.7458 565.711 66 565.711" stroke="black" stroke-opacity="0.1" stroke-width="5" stroke-linecap="round"/>
<path d="M3 449.711C16.1604 468.439 35.4683 500.594 56.9883 511.354C74.9645 520.342 91.3127 520.372 110.977 523.038C149.811 528.304 195.031 523.194 232.652 534.722C249.62 539.922 273.556 555.333 287.446 566.551C301.279 577.724 315.376 582.998 325.721 597.574C337.984 614.854 352.691 633.763 367.219 649.145C380.437 663.141 399.451 669.827 417.783 675.938C452.808 687.613 503.025 678.154 539.659 678.154C588.101 678.154 630.189 675.016 677.047 661.836C698.099 655.916 724.86 641.893 746.346 641.893C764.191 641.893 780.104 634.641 797.312 634.641C815.707 634.641 836.763 630.966 853.315 639.879C861.758 644.425 872.233 643.908 879.705 650.757C886.025 656.55 900.372 666.249 908.5 669.5" stroke="black" stroke-opacity="0.1" stroke-width="5" stroke-linecap="round"/>
<path d="M360.183 706.595C329.412 701.358 297.075 702.183 265.905 702.969C232.877 703.802 199.018 725.852 171.224 743.058C141.699 761.335 108.042 764.613 73.9246 764.613C67.7248 764.613 23.0372 764.533 26.5841 760.986" stroke="black" stroke-opacity="0.1" stroke-width="5" stroke-linecap="round"/>
<path d="M396.444 735.604C346.582 734.626 276.489 710.654 230.45 739.23C202.927 756.313 180.317 779.799 151.885 795.233C113.282 816.189 78.8724 829.882 33.8363 829.882" stroke="black" stroke-opacity="0.1" stroke-width="5" stroke-linecap="round"/>
<path d="M1027.5 526.5C1027.5 505.323 1021.22 505.54 1038.46 487.218C1063.74 460.363 1104.03 436.64 1120.85 403.617C1136 373.887 1146.1 342.301 1161.34 312.763C1173.28 289.641 1183.02 231.722 1197.5 210" stroke="black" stroke-opacity="0.1" stroke-width="5" stroke-linecap="round"/>
<path d="M1036.5 677.5C1036.5 635.572 1091.4 624.811 1099.9 586.532C1103.9 568.542 1107.16 554.605 1107.16 536.17C1107.16 523.574 1109.62 502.471 1118.03 492.858C1148.39 458.161 1159.46 414.985 1178.87 374.608C1184.49 362.923 1186.93 353.903 1186.93 340.765C1186.93 321.377 1201.41 307.735 1208.08 290.402C1218.77 262.602 1238.37 234.533 1259.45 213.449" stroke="black" stroke-opacity="0.1" stroke-width="5" stroke-linecap="round"/>
<path d="M1545.91 532.544C1576.72 459.825 1563.22 398.391 1527.78 329.484C1519.71 313.792 1508.27 299.73 1500.38 283.956C1496.25 275.686 1490 189.981 1490 181" stroke="black" stroke-opacity="0.1" stroke-width="5" stroke-linecap="round"/>
<path d="M1655 461C1631.24 444.517 1612.64 414.096 1599.5 389.112C1587.51 366.345 1595.35 341.306 1579.35 318.202C1574.69 311.471 1568.12 296.304 1560.41 293.223C1552.88 290.209 1546.17 285.764 1543.09 277.913C1538.45 266.112 1531.69 254.299 1525.97 242.861C1517.25 225.418 1516.86 203.557 1513.28 184.44" stroke="black" stroke-opacity="0.1" stroke-width="5" stroke-linecap="round"/>
<path d="M1600.3 383.875C1619.75 350.704 1647.83 315.328 1657.92 277.51C1662.66 259.724 1688.88 158.413 1706 147" stroke="black" stroke-opacity="0.1" stroke-width="5" stroke-linecap="round"/>
<path d="M1645.5 452.5C1636.89 406.201 1646.2 363.997 1670 323.44C1705.18 263.504 1718 195.609 1748.97 133.675" stroke="black" stroke-opacity="0.1" stroke-width="5" stroke-linecap="round"/>
<path d="M812 365.5C798.904 354.64 783.473 335.324 775.369 320.015C767.307 304.787 767.126 288.263 755.426 274.891C743.33 261.067 697.701 168.85 682 161" stroke="black" stroke-opacity="0.1" stroke-width="5" stroke-linecap="round"/>
<path d="M901 370C867.91 345.256 815.912 335.349 798.939 292.417C793.4 278.408 777.182 260.452 777.182 245.882C777.182 218.811 766.021 195.489 759.052 169.936" stroke="black" stroke-opacity="0.1" stroke-width="5" stroke-linecap="round"/>
<path d="M1368.23 757.361C1378.37 714.273 1389.99 675.003 1389.99 630.448C1389.99 580.339 1362.75 540.474 1331.17 503.535C1302.03 469.466 1275.66 434.432 1248.77 398.58C1240.63 387.727 1236.06 374.873 1227.62 363.73C1222.63 357.142 1195 323.393 1195 315.5" stroke="black" stroke-opacity="0.1" stroke-width="5" stroke-linecap="round"/>
<path d="M1477.01 644.952C1464.68 621.228 1447.99 601.813 1436.73 577.87C1428.23 559.823 1411.75 546.663 1402.88 528.918C1391.69 506.525 1375.75 485.184 1362.59 463.648C1354.27 450.034 1332.74 446.283 1320.89 434.438C1308.76 422.303 1293.04 418.413 1284.83 402.005C1280.7 393.735 1274.4 371.121 1273.95 362.118C1272.29 328.771 1223 297.558 1223 263.5" stroke="black" stroke-opacity="0.1" stroke-width="5" stroke-linecap="round"/>
<path d="M1171.6 286.799C1134.57 270.541 1127.81 230.407 1093 213" stroke="black" stroke-opacity="0.1" stroke-width="5" stroke-linecap="round"/>
<path d="M3213.81 2171.84C3204.09 2101.06 3222.02 2048.9 3167.14 1994.01C3139.75 1966.63 3071.83 1948.19 3034.37 1932.86C2982.51 1911.64 2923.25 1850.66 2895.16 1802.5C2858.55 1739.73 2809.22 1675.89 2761.59 1621.46C2741.74 1598.77 2699.63 1568.95 2699.63 1540.19C2699.63 1467.73 2755.77 1430.86 2793.78 1376.84C2825.12 1332.31 2876.87 1301.31 2912.87 1260.17C2944.62 1223.87 2960.34 1165.77 2960.34 1117.74C2960.34 1073.31 2972.26 1007.04 2944.25 969.688C2920.48 937.999 2889.93 894.689 2858.95 869.91C2838.42 853.484 2800.08 852.806 2786.53 832.494C2773.35 812.711 2743.57 799.905 2725.38 785.019C2706.46 769.54 2691.86 752.453 2672.27 737.947C2651.01 722.195 2625.92 697.34 2609.11 676.793C2595.91 660.668 2569.35 650.514 2553.18 634.951C2523.11 605.989 2470.24 578.626 2428.06 578.626C2378.72 578.626 2323.15 555.654 2271.96 549.256C2176.46 537.318 2079.23 443.731 2019.5 384" stroke="black" stroke-opacity="0.1" stroke-width="5" stroke-linecap="round"/>
<path d="M1957.5 332C1900.75 311.154 1869.34 132.264 1840.5 89" stroke="black" stroke-opacity="0.1" stroke-width="5" stroke-linecap="round"/>
<path d="M3394.85 1766.3C3315.29 1758.53 3236.98 1764.98 3160.3 1744.97C3128.75 1736.74 3103.63 1702.73 3083.05 1678.99C3057.4 1649.39 3030.76 1633.95 3003.79 1606.97C2983.52 1586.7 2955.61 1573.01 2938.61 1550.65C2928.24 1536.99 2911.61 1544.81 2898.78 1534.56C2874.33 1514.99 2937.19 1448.44 2949.07 1431.56C2984.96 1380.56 3041.38 1334.68 3083.45 1287.93C3118.98 1248.46 3140.87 1198.95 3157.48 1149.13C3165.72 1124.4 3158.74 1098.95 3166.33 1074.29C3177.53 1037.91 3183.27 1002.02 3173.57 963.25C3161.8 916.142 3102.16 850.299 3057.7 828.068C2968.2 783.317 2859.74 774.942 2784.93 700.128C2741.7 656.905 2693.22 608.125 2641.7 575.005C2620.32 561.263 2599.14 540.906 2580.14 523.909C2558.39 504.446 2538.14 504.818 2511.34 493.332C2435.09 460.652 2348.82 455.646 2277.99 412.062C2255.66 398.318 2192.39 396.64 2178.22 371.829C2164.1 347.12 2126.81 370.114 2114.5 345.5" stroke="black" stroke-opacity="0.1" stroke-width="5" stroke-linecap="round"/>
<path d="M2050 286.5C2017.33 274.056 1931.4 149.606 1913 122" stroke="black" stroke-opacity="0.1" stroke-width="5" stroke-linecap="round"/>
<path d="M2914 775.5C2985.32 773.76 2996.55 711.148 2996.55 652.654C2996.55 611.736 2965.59 581.198 2942.64 548.049C2912.17 504.041 2847.98 444.021 2876.66 383.094C2876.66 347.5 2982 36.5 3038.5 3" stroke="black" stroke-opacity="0.1" stroke-width="5" stroke-linecap="round"/>
<path d="M3132 893C3132 801.98 3124 737.214 3079.83 658.689C3068.88 639.215 3059.27 619.621 3043.62 603.972C3021.38 581.733 3023.13 538.115 3007.41 509.828C2995.15 487.751 2977.97 471.12 2963.56 449.881C2942.24 418.46 2945.86 384.385 2945.86 348.494C2945.86 292.61 3003.35 245.173 3029.54 198.024C3059.52 144.054 3089.96 89.9348 3119.66 35.4839" stroke="black" stroke-opacity="0.1" stroke-width="5" stroke-linecap="round"/>
<path d="M3107.5 713.5C3107.5 672.646 3124.19 640 3144.61 602.765C3173.14 550.735 3227.12 534.812 3270.94 498.965C3326.04 453.88 3377.08 398.105 3438.3 361.369" stroke="black" stroke-opacity="0.1" stroke-width="5" stroke-linecap="round"/>
<path d="M3177.6 975C3167.1 928 3177.6 772.345 3177.6 723.463C3177.6 683.559 3193.17 637.111 3221.05 607.593C3262.31 563.9 3328.71 540.712 3380.37 513.449C3431.48 486.475 3472.02 447.821 3525.21 426.546" stroke="black" stroke-opacity="0.1" stroke-width="5" stroke-linecap="round"/>
<path d="M2872 441C2840 373.5 2731.74 357.978 2655.38 324.355C2609.89 304.326 2563.29 283.496 2518.58 265.615C2489.56 254.007 2442.26 153.073 2438.5 123" stroke="black" stroke-opacity="0.1" stroke-width="5" stroke-linecap="round"/>
<path d="M2883 339C2850.8 314.291 2817.7 329.636 2779.29 314.699C2746.48 301.938 2710.88 299.988 2678.31 285.329C2633 264.939 2585.33 264.524 2543.53 234.233C2513.54 212.503 2481 153.5 2469.5 117.5" stroke="black" stroke-opacity="0.1" stroke-width="5" stroke-linecap="round"/>
<path d="M3167 1078.32C3206.69 1024.3 3253.89 999.733 3313.45 975.326C3351.72 959.641 3417.85 936.147 3447.5 906.5" stroke="black" stroke-opacity="0.1" stroke-width="5" stroke-linecap="round"/>
<path d="M3128.27 1221.83C3186.27 1161.83 3201.31 1120.19 3269.5 1084.83C3312.92 1062.31 3342.21 1060.55 3388.42 1049.35C3426.87 1040.03 3449.83 1019.05 3467.27 984.171" stroke="black" stroke-opacity="0.1" stroke-width="5" stroke-linecap="round"/>
<path d="M3170.5 567.5C3211.09 505.796 3262.7 437.387 3289.44 368.611C3306.79 324.007 3331.62 97.6961 3349.5 53" stroke="black" stroke-opacity="0.1" stroke-width="5" stroke-linecap="round"/>
<path d="M3286 487.578C3316.44 435.004 3353.2 369.172 3358.02 306.531C3363.21 239.011 3383.64 176.937 3394.63 111" stroke="black" stroke-opacity="0.1" stroke-width="5" stroke-linecap="round"/>
<path d="M2554.79 506.207C2497.58 419.524 2443.55 227.667 2416.5 133" stroke="black" stroke-opacity="0.1" stroke-width="5" stroke-linecap="round"/>
<path d="M2475.5 477.5C2486.9 425.777 2446.92 396.95 2439.5 345C2430.45 281.632 2390.51 190.26 2354 135.5" stroke="black" stroke-opacity="0.1" stroke-width="5" stroke-linecap="round"/>
<path d="M1103.53 2171.53C1129.12 2132.26 1163.23 2089.95 1171.62 2042.4C1179.26 1999.08 1180.12 1943.99 1163.16 1902.6C1151.52 1874.2 1128.51 1851.42 1109.17 1828.26C1091.39 1806.98 1075.74 1784.58 1055.99 1765.01C997.741 1707.28 927.982 1671.77 889.792 1595.39C866.816 1549.43 835.817 1510.02 815.054 1462.83C805.813 1441.83 762.195 1407.28 739.5 1403.5" stroke="black" stroke-opacity="0.1" stroke-width="5" stroke-linecap="round"/>
<path d="M1371.86 2164.28C1349.07 2092.11 1339.22 2014.53 1339.22 1939.06C1339.22 1910.78 1350.07 1875.12 1339.22 1848C1327.2 1817.94 1300.8 1783.74 1275.97 1762.59C1231.71 1724.89 1182.01 1691.16 1136.16 1655.02C1111.06 1635.23 1082.67 1620.24 1062.23 1595.19C1043.66 1572.42 1025.86 1548.99 1007.44 1526.09C992.162 1507.1 974.724 1488.77 962.313 1467.67C952.931 1451.72 946.442 1434.39 936.125 1418.92C907.174 1375.49 823 1382.5 803 1339" stroke="black" stroke-opacity="0.1" stroke-width="5" stroke-linecap="round"/>
<path d="M707.5 1223.5C667.895 1157.49 591.939 1165.56 520.335 1154.62C477.239 1148.03 435.869 1138.36 392.012 1138.1C343.749 1137.81 298.688 1129.85 250.998 1122.18C225.619 1118.11 210.721 1098.59 184.52 1098.21C152.441 1097.75 115.184 1093.1 84.6014 1101.84" stroke="black" stroke-opacity="0.1" stroke-width="5" stroke-linecap="round"/>
<path d="M617.5 1327.5C621.754 1299.31 622.936 1281.59 593.461 1267.83C570.003 1256.88 550.834 1242.57 525.17 1237.82C507.784 1234.6 490.799 1228.57 473.397 1225.93C441.449 1221.09 406.385 1225.12 374.285 1225.12C345.276 1225.12 316.267 1225.12 287.259 1225.12C239.242 1225.12 192.012 1217.87 144.23 1217.87C130.523 1217.87 115.975 1219.19 102.329 1217.67C71.1865 1214.21 60.911 1183.86 37.4623 1167.11" stroke="black" stroke-opacity="0.1" stroke-width="5" stroke-linecap="round"/>
<path d="M350.5 1225.5C302.5 1225.5 296.064 1240.81 264.495 1260.98C242.396 1275.1 222.192 1292.61 201.039 1308.12C188.812 1317.09 174.449 1319.27 160.749 1325.04C140.067 1333.75 99.7069 1337.53 77.3492 1337.53" stroke="black" stroke-opacity="0.1" stroke-width="5" stroke-linecap="round"/>
<path d="M497.5 1231C447.368 1245.2 366.545 1263.94 317.476 1280.93C293.67 1289.17 279.594 1298.11 262.279 1317.59C237.012 1346.02 198.475 1375.55 160.749 1383.87C143.399 1387.69 129.889 1395.55 111.998 1395.55C98.467 1395.55 82.3198 1401.54 70.097 1406.43" stroke="black" stroke-opacity="0.1" stroke-width="5" stroke-linecap="round"/>
<path d="M2772 1639C2741.11 1698.77 2707.47 1759.93 2665.97 1812.75C2639.99 1845.81 2605.88 1880.04 2566.85 1897.16C2535.19 1911.04 2510.81 1918.46 2485.06 1943.29C2463.71 1963.88 2441.63 1982.34 2423.02 2005.54C2411.66 2019.7 2407.25 2035.71 2398.04 2051.06C2383.06 2076.02 2371.97 2104.76 2354.53 2128.02" stroke="black" stroke-opacity="0.1" stroke-width="5" stroke-linecap="round"/>
<path d="M2853.5 1736C2828 1763.5 2781.87 1790.88 2749.37 1812.55C2721.04 1831.44 2684.47 1866.32 2675.23 1900.38C2667.49 1928.94 2658.92 1950.11 2636.96 1972.5C2618.16 1991.65 2594.76 2005.43 2575.72 2024.47C2549.38 2050.81 2521.33 2057.49 2521.33 2099.01C2521.33 2139.78 2568.97 2166.76 2601.1 2186.04" stroke="black" stroke-opacity="0.1" stroke-width="5" stroke-linecap="round"/>
<path d="M2956.5 1423.5C2987.83 1405.6 3036.91 1403.3 3072.49 1399.98C3129.53 1394.66 3189.85 1394.14 3245.73 1381.25C3266.33 1376.49 3281.45 1373.91 3298.92 1361.1C3311.86 1351.61 3322.98 1340.38 3335.38 1330.28C3349.75 1318.57 3358.9 1294.94 3377.08 1290.39" stroke="black" stroke-opacity="0.1" stroke-width="5" stroke-linecap="round"/>
<path d="M2966.5 1574.5C2984.77 1541.22 3007.1 1519 3043.08 1506.55C3064.72 1499.06 3093.13 1504.36 3115.8 1500.71C3148.07 1495.5 3182.05 1495.65 3214.71 1497.28C3241.84 1498.64 3269.37 1503.41 3293.68 1516.02C3305.88 1522.34 3315.67 1534.96 3330.75 1533.34C3346.27 1531.68 3354.88 1511.44 3362.58 1499.9C3370.74 1487.66 3377.27 1489.83 3391.58 1489.83" stroke="black" stroke-opacity="0.1" stroke-width="5" stroke-linecap="round"/>
</svg>
